<svg xmlns="http://www.w3.org/2000/svg" viewBox="0 0 320 240" role="img" aria-label="Cafe latte illustration">
  <rect width="320" height="240" fill="#fff"/>
  <ellipse cx="160" cy="194" rx="96" ry="14" fill="#f2e8dd"/>
  <path d="M94 88h132v48c0 36-28 61-66 61s-66-25-66-61z" fill="#f7f0e8" stroke="#2e1b0e" stroke-width="6"/>
  <path d="M226 107h15c19 0 31 11 31 28s-12 28-31 28h-15" fill="none" stroke="#2e1b0e" stroke-width="6" stroke-linecap="round"/>
  <ellipse cx="160" cy="88" rx="66" ry="21" fill="#c99362" stroke="#2e1b0e" stroke-width="6"/>
  <path d="M160 76c24 9 28 25 0 34-28-9-24-25 0-34z" fill="#fff7ef"/>
  <path d="M160 82c11 5 12 14 0 19-12-5-11-14 0-19z" fill="#e6c09a"/>
</svg>
