<svg xmlns="http://www.w3.org/2000/svg" viewBox="0 0 320 240" role="img" aria-label="Cake illustration">
  <rect width="320" height="240" fill="#fff"/>
  <ellipse cx="160" cy="198" rx="98" ry="13" fill="#f2e8dd"/>
  <path d="M84 111h152v61c0 13-11 23-24 23H108c-13 0-24-10-24-23z" fill="#ffd8c9" stroke="#2e1b0e" stroke-width="6" stroke-linejoin="round"/>
  <path d="M84 111c10-24 32-38 76-38s66 14 76 38z" fill="#fff5f0" stroke="#2e1b0e" stroke-width="6" stroke-linejoin="round"/>
  <path d="M94 129c16 15 32-9 48 6s32-9 48 6 27-5 37-1" fill="none" stroke="#fff" stroke-width="10" stroke-linecap="round"/>
  <path d="M121 73c-6-18 22-18 16 0M183 73c-6-18 22-18 16 0" fill="#e8485f" stroke="#2e1b0e" stroke-width="5"/>
  <circle cx="126" cy="151" r="5" fill="#e8485f"/>
  <circle cx="162" cy="159" r="5" fill="#f0bb62"/>
  <circle cx="199" cy="149" r="5" fill="#78a957"/>
</svg>
