<svg xmlns="http://www.w3.org/2000/svg" viewBox="0 0 320 240" role="img" aria-label="Dessert category illustration">
  <rect width="320" height="240" fill="#fff"/>
  <path d="M84 116h152v62c0 13-11 24-24 24H108c-13 0-24-11-24-24z" fill="#ffd8c9" stroke="#2e1b0e" stroke-width="7" stroke-linejoin="round"/>
  <path d="M84 116c9-28 38-46 76-46s67 18 76 46z" fill="#fff5f0" stroke="#2e1b0e" stroke-width="7" stroke-linejoin="round"/>
  <path d="M101 136c18 14 33-8 50 6 18 14 33-8 50 5 10 8 20 5 29 1" fill="none" stroke="#fff" stroke-width="11" stroke-linecap="round"/>
  <path d="M134 69c-7-20 24-20 17 0M181 69c-7-20 24-20 17 0" fill="#e8485f" stroke="#2e1b0e" stroke-width="5"/>
  <circle cx="132" cy="159" r="6" fill="#e8485f"/>
  <circle cx="162" cy="166" r="6" fill="#f0bb62"/>
  <circle cx="197" cy="157" r="6" fill="#78a957"/>
</svg>
