<svg xmlns="http://www.w3.org/2000/svg" viewBox="0 0 320 240" role="img" aria-label="Espresso illustration">
  <rect width="320" height="240" fill="#fff"/>
  <ellipse cx="160" cy="190" rx="92" ry="14" fill="#f2e8dd"/>
  <path d="M96 98h114v40c0 34-25 58-57 58s-57-24-57-58z" fill="#f7f0e8" stroke="#2e1b0e" stroke-width="6"/>
  <path d="M210 112h18c18 0 29 10 29 25s-11 25-29 25h-18" fill="none" stroke="#2e1b0e" stroke-width="6" stroke-linecap="round"/>
  <ellipse cx="153" cy="98" rx="57" ry="19" fill="#3a2113" stroke="#2e1b0e" stroke-width="6"/>
  <ellipse cx="153" cy="96" rx="38" ry="9" fill="#8f5a36" opacity=".85"/>
  <path d="M126 56c-10 15 11 21 1 36M159 49c-12 17 12 24 0 41M190 56c-9 14 10 20 1 34" fill="none" stroke="#d8a06b" stroke-width="6" stroke-linecap="round"/>
</svg>
